<?xml version="1.0" encoding="utf-8"?>
<!-- Generator: Adobe Illustrator 24.3.0, SVG Export Plug-In . SVG Version: 6.00 Build 0)  -->
<svg version="1.1" id="图层_1" xmlns="http://www.w3.org/2000/svg" xmlns:xlink="http://www.w3.org/1999/xlink" x="0px" y="0px"
	 viewBox="0 0 198.64 198.64" style="enable-background:new 0 0 198.64 198.64;" xml:space="preserve">
<style type="text/css">
	.st0{fill:url(#SVGID_1_);}
	.st1{fill:url(#SVGID_2_);}
</style>
<g>
	<g>
		<linearGradient id="SVGID_1_" gradientUnits="userSpaceOnUse" x1="28.2262" y1="22.0159" x2="162.934" y2="168.0047">
			<stop  offset="0.0344" style="stop-color:#0013F7"/>
			<stop  offset="1" style="stop-color:#F762A7"/>
		</linearGradient>
		<path class="st0" d="M34.3,102.62c4.61-3.4,10.29-4.3,15.45-2.97c0.82,0.22,1.61,0.48,2.4,0.78c0.55,0.22,1.12,0.48,1.64,0.78
			c0.24,0.11,0.49,0.24,0.71,0.39c0.04,0.02,0.1,0.05,0.14,0.08c0.26,0.15,0.51,0.31,0.76,0.47c1.72,1.17,3.27,2.65,4.56,4.4
			c1.97,2.68,4.52,4.66,7.35,5.91c0.4,0.19,0.83,0.34,1.24,0.5c0.67,0.24,1.37,0.44,2.07,0.61c0.73,0.16,1.48,0.29,2.24,0.38
			c0.29,0.04,0.58,0.06,0.85,0.07c0.26,0.01,0.52,0.03,0.78,0.03c3.87,0.05,7.76-1.09,11.12-3.56c8.16-6,9.93-17.5,3.94-25.66
			c-6-8.18-4.24-19.66,3.94-25.66c4.61-3.4,10.29-4.3,15.43-2.97c0.82,0.22,1.62,0.48,2.41,0.79c0.55,0.22,1.1,0.48,1.64,0.78
			c0.24,0.11,0.47,0.24,0.71,0.39c0.04,0.02,0.1,0.05,0.14,0.08c0.26,0.15,0.51,0.31,0.76,0.47c1.72,1.17,3.27,2.65,4.56,4.4
			c2.15,2.92,5,5.03,8.14,6.25c0.45,0.18,0.91,0.34,1.36,0.47c1.67,0.5,3.4,0.77,5.14,0.79c0.48,0.01,0.96-0.01,1.44-0.04
			c3.34-0.24,6.67-1.4,9.57-3.53c4.61-3.4,10.29-4.3,15.43-2.97c0.82,0.22,1.62,0.48,2.41,0.79c0.55,0.22,1.1,0.48,1.64,0.78
			c0.24,0.11,0.47,0.24,0.71,0.39c0.04,0.02,0.1,0.05,0.14,0.08c0.26,0.15,0.51,0.31,0.76,0.47c1.72,1.17,3.27,2.65,4.56,4.4
			c5.99,8.18,4.23,19.65-3.95,25.64c-4.3,3.15-9.53,4.17-14.39,3.21c-0.33-0.05-0.64-0.13-0.97-0.21c-1.41-0.36-2.77-0.87-4.05-1.56
			c-0.6-0.31-1.18-0.66-1.74-1.04c-1.69-1.14-3.22-2.58-4.49-4.32c-1.26-1.72-2.76-3.16-4.43-4.31c-0.56-0.38-1.14-0.73-1.74-1.04
			c-0.53-0.28-1.06-0.53-1.6-0.75c-0.55-0.22-1.11-0.42-1.67-0.6c-0.27-0.07-0.52-0.14-0.79-0.21c-0.18-0.06-0.37-0.1-0.55-0.13
			c-0.7-0.15-1.41-0.26-2.12-0.36c-0.27-0.03-0.55-0.05-0.82-0.06c-4.12-0.25-8.35,0.9-11.94,3.53c-8.18,5.99-9.94,17.48-3.94,25.66
			c5.99,8.16,4.23,19.65-3.95,25.64c-4.3,3.15-9.53,4.17-14.39,3.21c-0.33-0.05-0.64-0.13-0.97-0.21c-1.41-0.36-2.77-0.87-4.05-1.56
			c-0.6-0.31-1.18-0.66-1.74-1.04c-1.69-1.14-3.22-2.58-4.49-4.32c-1.26-1.72-2.76-3.16-4.43-4.31c-0.56-0.38-1.14-0.73-1.74-1.04
			c-0.51-0.28-1.06-0.53-1.6-0.75c-0.55-0.22-1.11-0.42-1.67-0.6c-0.25-0.07-0.52-0.14-0.79-0.21c-0.18-0.06-0.37-0.1-0.55-0.13
			c-0.69-0.15-1.4-0.26-2.12-0.36c-0.27-0.03-0.55-0.05-0.82-0.06c-4.12-0.25-8.35,0.9-11.94,3.53c-8.18,5.99-9.94,17.48-3.94,25.66
			c5.99,8.16,4.23,19.65-3.95,25.64c-0.24,0.17-0.48,0.33-0.72,0.49c15.11,9.28,32.88,14.63,51.91,14.63
			c54.85,0,99.32-44.47,99.32-99.32S154.17,0,99.32,0S0,44.47,0,99.32c0,23,7.82,44.16,20.94,61c1.3-2.3,3.33-4.79,5.49-6.38
			c8.16-6,9.93-17.5,3.94-25.66C24.36,120.1,26.13,108.61,34.3,102.62z"/>
		<linearGradient id="SVGID_2_" gradientUnits="userSpaceOnUse" x1="188.3263" y1="103.215" x2="17.5607" y2="117.8141">
			<stop  offset="0" style="stop-color:#0013CA"/>
			<stop  offset="0.9936" style="stop-color:#E362A7"/>
		</linearGradient>
		<path class="st1" d="M34.23,102.58c4.61-3.4,10.29-4.3,15.45-2.97c0.82,0.22,1.61,0.48,2.4,0.78c0.55,0.22,1.12,0.48,1.64,0.78
			c0.24,0.11,0.49,0.24,0.71,0.39c0.04,0.02,0.1,0.05,0.14,0.08c0.26,0.15,0.51,0.31,0.76,0.47c1.74,1.15,3.32,2.64,4.63,4.43
			c1.96,2.65,4.48,4.62,7.28,5.89c0.4,0.19,0.83,0.34,1.24,0.5c0.67,0.24,1.37,0.44,2.07,0.61c0.75,0.18,1.5,0.31,2.24,0.38
			c0.29,0.04,0.58,0.06,0.85,0.07c0.26,0.01,0.52,0.03,0.78,0.03c3.89,0.09,7.82-1.07,11.2-3.53c8.16-6,9.93-17.5,3.94-25.66
			c-6-8.18-4.24-19.67,3.94-25.66c4.59-3.37,10.23-4.3,15.36-3c0.82,0.22,1.62,0.48,2.41,0.79c0.55,0.22,1.1,0.48,1.64,0.78
			c0.24,0.11,0.47,0.24,0.71,0.39c0.04,0.02,0.1,0.05,0.14,0.08c0.26,0.15,0.51,0.31,0.76,0.47c1.74,1.15,3.32,2.64,4.63,4.43
			c2.12,2.89,4.95,4.99,8.06,6.22c0.45,0.18,0.91,0.34,1.36,0.47c1.67,0.5,3.4,0.77,5.14,0.79c0.48,0.01,0.96-0.01,1.44-0.04
			c3.37-0.22,6.73-1.38,9.65-3.51c4.59-3.37,10.23-4.3,15.36-3c0.82,0.22,1.62,0.48,2.41,0.79c0.55,0.22,1.1,0.48,1.64,0.78
			c0.24,0.11,0.47,0.24,0.71,0.39c0.04,0.02,0.1,0.05,0.14,0.08c0.26,0.15,0.51,0.31,0.76,0.47c1.74,1.15,3.32,2.64,4.63,4.43
			c5.99,8.16,4.23,19.65-3.95,25.64c-4.33,3.18-9.6,4.18-14.46,3.19c-0.33-0.05-0.64-0.13-0.97-0.21c-1.41-0.36-2.77-0.87-4.05-1.56
			c-0.6-0.31-1.18-0.66-1.74-1.04c-1.66-1.14-3.16-2.57-4.42-4.29c-1.29-1.76-2.81-3.2-4.51-4.34c-0.56-0.38-1.14-0.73-1.74-1.04
			c-0.53-0.28-1.06-0.53-1.6-0.75c-0.55-0.22-1.11-0.42-1.67-0.6c-0.27-0.07-0.52-0.14-0.79-0.21c-0.18-0.06-0.37-0.1-0.55-0.13
			c-0.7-0.15-1.41-0.26-2.12-0.36c-0.27-0.03-0.55-0.05-0.82-0.06c-4.11-0.21-8.31,0.93-11.86,3.55
			c-8.18,5.99-9.94,17.48-3.94,25.66c5.99,8.16,4.23,19.65-3.95,25.64c-4.33,3.18-9.6,4.18-14.46,3.19
			c-0.33-0.05-0.64-0.13-0.97-0.21c-1.41-0.36-2.77-0.87-4.05-1.56c-0.6-0.31-1.18-0.66-1.74-1.04c-1.66-1.14-3.16-2.57-4.42-4.29
			c-1.29-1.76-2.81-3.2-4.51-4.34c-0.56-0.38-1.14-0.73-1.74-1.04c-0.51-0.28-1.06-0.53-1.6-0.75c-0.55-0.22-1.11-0.42-1.67-0.6
			c-0.25-0.07-0.52-0.14-0.79-0.21c-0.18-0.06-0.37-0.1-0.55-0.13c-0.69-0.15-1.4-0.26-2.12-0.36c-0.27-0.03-0.55-0.05-0.82-0.06
			c-4.09-0.21-8.3,0.94-11.86,3.55c-8.18,5.99-9.94,17.47-3.94,25.66c6,8.16,4.24,19.64-3.93,25.63c-0.25,0.18-0.5,0.35-0.76,0.51
			c0.6,0.37,1.21,0.74,1.82,1.09c3.88-3.95,6.44-8.99,7.3-14.58c1.1-7.04-0.62-14.05-4.84-19.79c-3.82-5.22-2.69-12.58,2.52-16.4
			c2.54-1.85,5.63-2.59,8.72-2.12s5.81,2.11,7.66,4.63c4.2,5.72,10.41,9.47,17.43,10.56c7.03,1.08,14.04-0.66,19.78-4.86
			c5.72-4.2,9.48-10.39,10.56-17.42c1.09-7.03-0.64-14.06-4.85-19.8c-3.82-5.22-2.69-12.56,2.51-16.38
			c2.54-1.86,5.63-2.61,8.74-2.13c3.08,0.47,5.81,2.11,7.66,4.65c4.2,5.74,10.39,9.5,17.41,10.58c7.01,1.08,14.06-0.65,19.8-4.87
			c11.83-8.7,14.39-25.38,5.71-37.23c-4.2-5.72-10.4-9.49-17.42-10.56c-7.04-1.08-14.06,0.65-19.8,4.85
			c-2.51,1.85-5.62,2.63-8.7,2.16c-3.12-0.48-5.83-2.15-7.7-4.67c-4.2-5.72-10.37-9.48-17.4-10.56c-7.04-1.08-14.07,0.65-19.81,4.85
			c-11.82,8.7-14.38,25.4-5.71,37.23c1.87,2.53,2.63,5.62,2.15,8.71c-0.48,3.11-2.13,5.83-4.67,7.67c-2.51,1.85-5.61,2.63-8.7,2.16
			c-3.09-0.47-5.82-2.14-7.68-4.67c-4.22-5.73-10.39-9.48-17.42-10.56c-7.03-1.08-14.06,0.65-19.8,4.85
			c-11.83,8.68-14.39,25.38-5.71,37.21c1.85,2.54,2.62,5.64,2.15,8.73c-0.47,3.08-2.14,5.82-4.67,7.67
			c-0.51,0.38-1.62,1.21-2.39,1.82c2.59,4.74,5.55,9.25,8.85,13.48c1.29-2.31,3.26-4.83,5.43-6.42c8.16-6,9.93-17.5,3.94-25.66
			C24.3,120.06,26.06,108.57,34.23,102.58z"/>
	</g>
</g>
</svg>
